{
  "source": "C:\\Users\\Peter\\Desktop\\stuff\\MIUN\\quantitative_research\\video_compression\\videos\\BVI-HD\\RockWater_1920x1080_30fps.mp4",
  "output": "C:\\Users\\Peter\\Desktop\\stuff\\MIUN\\quantitative_research\\video_compression\\compressed_videos\\BVI-HD\\hevc\\3\\RockWater_1920x1080_30fps_hevc.mp4",
  "codec": "hevc",
  "ok": "Input #0, mov,mp4,m4a,3gp,3g2,mj2, from 'C:\\Users\\Peter\\Desktop\\stuff\\MIUN\\quantitative_research\\video_compression\\videos\\BVI-HD\\RockWater_1920x1080_30fps.mp4':\n  Metadata:\n    major_brand     : isom\n    minor_version   : 512\n    compatible_brands: isomiso2avc1mp41\n    encoder         : Lavf54.28.101\n  Duration: 00:00:05.00, start: 0.000000, bitrate: 245943 kb/s\n  Stream #0:0[0x1](und): Video: h264 (High 4:4:4 Predictive) (avc1 / 0x31637661), yuv420p(progressive), 1920x1080, 245940 kb/s, 30 fps, 30 tbr, 30 tbn (default)\n    Metadata:\n      handler_name    : VideoHandler\n      vendor_id       : [0][0][0][0]\n[out#0/mp4 @ 000001b67f231440] Codec AVOption b:a (set bitrate (in bits/s)) has not been used for any stream. The most likely reason is either wrong type (e.g. a video option with no video streams) or that it is a private option of some decoder which was not actually used for any stream.\nStream mapping:\n  Stream #0:0 -> #0:0 (h264 (native) -> hevc (libx265))\nPress [q] to stop, [?] for help\n[libx265 @ 000001b67fae47c0] Unknown option: \"aq-mode.\nx265 [info]: HEVC encoder version 4.1+190-8f11c33ac\nx265 [info]: build info [Windows][GCC 15.1.0][64 bit] 10bit\nx265 [info]: using cpu capabilities: MMX2 SSE2Fast LZCNT SSSE3 SSE4.2 AVX FMA3 BMI2 AVX2\nx265 [info]: Main 10 profile, Level-4 (Main tier)\nx265 [info]: Thread pool created using 12 threads\nx265 [info]: Slices                              : 1\nx265 [info]: frame threads / pool features       : 3 / wpp(17 rows)\nx265 [info]: Coding QT: max CU size, min CU size : 64 / 8\nx265 [info]: Residual QT: max TU size, max depth : 32 / 1 inter / 1 intra\nx265 [info]: ME / range / subpel / merge         : star / 57 / 3 / 3\nx265 [info]: Keyframe min / max / scenecut / bias  : 25 / 250 / 40 / 5.00 \nx265 [info]: Lookahead / bframes / badapt        : 25 / 4 / 2\nx265 [info]: b-pyramid / weightp / weightb       : 1 / 1 / 0\nx265 [info]: References / ref-limit  cu / depth  : 4 / on / on\nx265 [info]: AQ: mode / str / qg-size / cu-tree  : 2 / 1.0 / 32 / 1\nx265 [info]: Rate Control / qCompress            : ABR-3000 kbps / 0.60\nx265 [info]: VBV/HRD buffer / max-rate / init    : 3000 / 3000 / 0.750\nx265 [info]: tools: rect limit-modes rd=4 psy-rd=2.00 rdoq=2 psy-rdoq=1.00\nx265 [info]: tools: rskip mode=1 signhide tmvp strong-intra-smoothing lslices=4\nx265 [info]: tools: deblock sao dhdr10-info\nOutput #0, mp4, to 'C:\\Users\\Peter\\Desktop\\stuff\\MIUN\\quantitative_research\\video_compression\\compressed_videos\\BVI-HD\\hevc\\3\\RockWater_1920x1080_30fps_hevc.mp4':\n  Metadata:\n    major_brand     : isom\n    minor_version   : 512\n    compatible_brands: isomiso2avc1mp41\n    encoder         : Lavf62.3.100\n  Stream #0:0(und): Video: hevc (hev1 / 0x31766568), yuv420p10le(tv, progressive), 1920x1080, q=2-31, 3000 kb/s, 30 fps, 15360 tbn (default)\n    Metadata:\n      encoder         : Lavc62.11.100 libx265\n      handler_name    : VideoHandler\n      vendor_id       : [0][0][0][0]\n    Side data:\n      cpb: bitrate max/min/avg: 3000000/0/3000000 buffer size: 3000000 vbv_delay: N/A\nframe=    0 fps=0.0 q=0.0 size=       0KiB time=N/A bitrate=N/A speed=N/A elapsed=0:00:00.50    \nframe=    0 fps=0.0 q=0.0 size=       0KiB time=N/A bitrate=N/A speed=N/A elapsed=0:00:01.02    \nframe=    0 fps=0.0 q=0.0 size=       0KiB time=N/A bitrate=N/A speed=N/A elapsed=0:00:01.53    \nframe=    1 fps=0.5 q=35.3 size=       0KiB time=-00:00:00.03 bitrate=N/A speed=N/A elapsed=0:00:02.06    \nframe=    2 fps=0.8 q=40.2 size=       0KiB time=00:00:00.00 bitrate=N/A speed=   0x elapsed=0:00:02.57    \nframe=    5 fps=1.6 q=38.6 size=       0KiB time=00:00:00.10 bitrate=   3.5kbits/s speed=0.0324x elapsed=0:00:03.08    \nframe=    6 fps=1.7 q=41.3 size=       0KiB time=00:00:00.13 bitrate=   2.6kbits/s speed=0.0369x elapsed=0:00:03.60    \nframe=    8 fps=1.9 q=42.0 size=       0KiB time=00:00:00.20 bitrate=   1.8kbits/s speed=0.0485x elapsed=0:00:04.12    \nframe=    9 fps=1.9 q=38.5 size=       0KiB time=00:00:00.23 bitrate=   1.5kbits/s speed=0.0504x elapsed=0:00:04.63    \nframe=   11 fps=2.1 q=41.6 size=       0KiB time=00:00:00.30 bitrate=   1.2kbits/s speed=0.0583x elapsed=0:00:05.14    \nframe=   13 fps=2.3 q=39.3 size=       0KiB time=00:00:00.36 bitrate=   1.0kbits/s speed=0.0646x elapsed=0:00:05.67    \nframe=   14 fps=2.3 q=41.2 size=       0KiB time=00:00:00.40 bitrate=   0.9kbits/s speed=0.0648x elapsed=0:00:06.17    \nframe=   16 fps=2.4 q=38.2 size=       0KiB time=00:00:00.46 bitrate=   0.8kbits/s speed=0.0697x elapsed=0:00:06.69    \nframe=   18 fps=2.5 q=37.9 size=       0KiB time=00:00:00.53 bitrate=   0.7kbits/s speed=0.0739x elapsed=0:00:07.21    \nframe=   20 fps=2.6 q=40.7 size=     256KiB time=00:00:00.60 bitrate=3495.8kbits/s speed=0.0776x elapsed=0:00:07.72    \nframe=   22 fps=2.7 q=41.7 size=     256KiB time=00:00:00.66 bitrate=3146.3kbits/s speed=0.0808x elapsed=0:00:08.25    \nframe=   23 fps=2.6 q=42.0 size=     256KiB time=00:00:00.70 bitrate=2996.4kbits/s speed=0.0799x elapsed=0:00:08.75    \nframe=   25 fps=2.7 q=40.6 size=     256KiB time=00:00:00.76 bitrate=2735.9kbits/s speed=0.0827x elapsed=0:00:09.27    \nframe=   27 fps=2.8 q=42.1 size=     256KiB time=00:00:00.83 bitrate=2517.0kbits/s speed=0.0851x elapsed=0:00:09.79    \nframe=   29 fps=2.8 q=39.9 size=     256KiB time=00:00:00.90 bitrate=2330.6kbits/s speed=0.0872x elapsed=0:00:10.31    \nframe=   31 fps=2.9 q=37.5 size=     256KiB time=00:00:00.96 bitrate=2169.8kbits/s speed=0.0893x elapsed=0:00:10.82    \nframe=   33 fps=2.9 q=41.6 size=     256KiB time=00:00:01.03 bitrate=2029.8kbits/s speed=0.0912x elapsed=0:00:11.33    \nframe=   34 fps=2.9 q=41.4 size=     256KiB time=00:00:01.06 bitrate=1966.4kbits/s speed=0.09x elapsed=0:00:11.85    \nframe=   37 fps=3.0 q=39.6 size=     256KiB time=00:00:01.16 bitrate=1797.9kbits/s speed=0.0943x elapsed=0:00:12.37    \nframe=   38 fps=2.9 q=41.2 size=     256KiB time=00:00:01.20 bitrate=1747.9kbits/s speed=0.0932x elapsed=0:00:12.88    \nframe=   40 fps=3.0 q=37.2 size=     256KiB time=00:00:01.26 bitrate=1655.9kbits/s speed=0.0945x elapsed=0:00:13.40    \nframe=   42 fps=3.0 q=37.4 size=     256KiB time=00:00:01.33 bitrate=1573.1kbits/s speed=0.0958x elapsed=0:00:13.91    \nframe=   44 fps=3.0 q=41.7 size=     512KiB time=00:00:01.40 bitrate=2996.2kbits/s speed=0.097x elapsed=0:00:14.42    \nframe=   47 fps=3.1 q=37.1 size=     512KiB time=00:00:01.50 bitrate=2796.4kbits/s speed= 0.1x elapsed=0:00:14.94    \nframe=   49 fps=3.2 q=41.5 size=     512KiB time=00:00:01.56 bitrate=2677.4kbits/s speed=0.101x elapsed=0:00:15.45    \nframe=   51 fps=3.2 q=37.0 size=     512KiB time=00:00:01.63 bitrate=2568.2kbits/s speed=0.102x elapsed=0:00:15.98    \nframe=   53 fps=3.2 q=41.4 size=     512KiB time=00:00:01.70 bitrate=2467.4kbits/s speed=0.103x elapsed=0:00:16.49    \nframe=   56 fps=3.3 q=40.0 size=     512KiB time=00:00:01.80 bitrate=2330.4kbits/s speed=0.106x elapsed=0:00:17.00    \nframe=   58 fps=3.3 q=41.9 size=     512KiB time=00:00:01.86 bitrate=2247.1kbits/s speed=0.107x elapsed=0:00:17.52    \nframe=   60 fps=3.3 q=39.7 size=     512KiB time=00:00:01.93 bitrate=2169.7kbits/s speed=0.107x elapsed=0:00:18.04    \nframe=   63 fps=3.4 q=39.6 size=     512KiB time=00:00:02.03 bitrate=2062.9kbits/s speed=0.11x elapsed=0:00:18.55    \nframe=   65 fps=3.4 q=41.4 size=     768KiB time=00:00:02.10 bitrate=2996.1kbits/s speed=0.11x elapsed=0:00:19.07    \nframe=   68 fps=3.5 q=42.0 size=     768KiB time=00:00:02.20 bitrate=2859.9kbits/s speed=0.112x elapsed=0:00:19.59    \nframe=   70 fps=3.5 q=41.7 size=     768KiB time=00:00:02.26 bitrate=2775.8kbits/s speed=0.113x elapsed=0:00:20.10    \nframe=   73 fps=3.5 q=41.2 size=     768KiB time=00:00:02.36 bitrate=2658.5kbits/s speed=0.115x elapsed=0:00:20.61    \nframe=   77 fps=3.6 q=41.4 size=     768KiB time=00:00:02.50 bitrate=2516.7kbits/s speed=0.118x elapsed=0:00:21.13    \nframe=   81 fps=3.7 q=36.8 size=     768KiB time=00:00:02.63 bitrate=2389.3kbits/s speed=0.122x elapsed=0:00:21.64    \nframe=   85 fps=3.8 q=41.4 size=     768KiB time=00:00:02.76 bitrate=2274.1kbits/s speed=0.125x elapsed=0:00:22.17    \nframe=   89 fps=3.9 q=36.8 size=    1024KiB time=00:00:02.90 bitrate=2892.7kbits/s speed=0.128x elapsed=0:00:22.68    \nframe=   93 fps=4.0 q=41.1 size=    1024KiB time=00:00:03.03 bitrate=2765.6kbits/s speed=0.131x elapsed=0:00:23.19    \nframe=   97 fps=4.1 q=41.4 size=    1024KiB time=00:00:03.16 bitrate=2649.1kbits/s speed=0.134x elapsed=0:00:23.71    \nframe=  101 fps=4.2 q=41.7 size=    1024KiB time=00:00:03.30 bitrate=2542.1kbits/s speed=0.136x elapsed=0:00:24.22    \nframe=  105 fps=4.2 q=41.5 size=    1024KiB time=00:00:03.43 bitrate=2443.4kbits/s speed=0.139x elapsed=0:00:24.75    \nframe=  108 fps=4.3 q=41.6 size=    1280KiB time=00:00:03.53 bitrate=2967.8kbits/s speed=0.14x elapsed=0:00:25.26    \nframe=  111 fps=4.3 q=40.1 size=    1280KiB time=00:00:03.63 bitrate=2886.1kbits/s speed=0.141x elapsed=0:00:25.77    \nframe=  114 fps=4.3 q=40.0 size=    1280KiB time=00:00:03.73 bitrate=2808.8kbits/s speed=0.142x elapsed=0:00:26.29    \nframe=  118 fps=4.4 q=41.0 size=    1280KiB time=00:00:03.86 bitrate=2711.9kbits/s speed=0.144x elapsed=0:00:26.80    \nframe=  122 fps=4.5 q=37.8 size=    1280KiB time=00:00:04.00 bitrate=2621.5kbits/s speed=0.146x elapsed=0:00:27.31    \nframe=  125 fps=4.5 q=42.1 size=    1280KiB time=00:00:04.10 bitrate=2557.6kbits/s speed=0.147x elapsed=0:00:27.84    \nframe=  129 fps=4.5 q=42.7 size=    1536KiB time=00:00:04.23 bitrate=2972.4kbits/s speed=0.149x elapsed=0:00:28.35    \nframe=  133 fps=4.6 q=42.8 size=    1536KiB time=00:00:04.36 bitrate=2881.7kbits/s speed=0.151x elapsed=0:00:28.86    \nframe=  138 fps=4.7 q=42.4 size=    1536KiB time=00:00:04.53 bitrate=2775.7kbits/s speed=0.154x elapsed=0:00:29.38    \nframe=  142 fps=4.7 q=42.8 size=    1536KiB time=00:00:04.66 bitrate=2696.4kbits/s speed=0.156x elapsed=0:00:29.90    \nframe=  146 fps=4.8 q=42.3 size=    1536KiB time=00:00:04.80 bitrate=2621.5kbits/s speed=0.158x elapsed=0:00:30.41    \n[mp4 @ 000001b67f231580] Starting second pass: moving the moov atom to the beginning of the file\n[out#0/mp4 @ 000001b67f231440] video:1787KiB audio:0KiB subtitle:0KiB other streams:0KiB global headers:2KiB muxing overhead: 0.286776%\nframe=  150 fps=4.9 q=41.2 Lsize=    1792KiB time=00:00:04.93 bitrate=2976.1kbits/s speed=0.161x elapsed=0:00:30.69    \nx265 [info]: frame I:      1, Avg QP:35.31  kb/s: 10272.24\nx265 [info]: frame P:     39, Avg QP:37.64  kb/s: 5196.92 \nx265 [info]: frame B:    110, Avg QP:41.25  kb/s: 2055.50 \nx265 [info]: Weighted P-Frames: Y:15.4% UV:12.8%\n\nencoded 150 frames in 30.40s (4.93 fps), 2927.04 kb/s, Avg QP:40.27\n",
  "seconds": 30.935064792633057,
  "probe_out": {}
}